<?xml version="1.0" standalone="no"?>
<!DOCTYPE svg PUBLIC "-//W3C//DTD SVG 20010904//EN"
 "http://www.w3.org/TR/2001/REC-SVG-20010904/DTD/svg10.dtd">
<svg version="1.0" xmlns="http://www.w3.org/2000/svg"
 width="500.000000pt" height="500.000000pt" viewBox="0 0 500.000000 500.000000"
 preserveAspectRatio="xMidYMid meet">
<metadata>
Created by potrace 1.11, written by Peter Selinger 2001-2013
</metadata>
<g transform="translate(0.000000,500.000000) scale(0.100000,-0.100000)"
fill="#000000" stroke="none">
<path d="M0 2605 l0 -2395 25 16 c14 9 25 12 25 8 0 -5 27 32 60 82 43 66 59
99 58 123 -2 58 55 71 77 18 10 -26 49 -58 162 -137 189 -132 188 -132 293
-18 41 45 75 89 76 98 2 25 13 40 39 50 36 14 189 275 187 317 -2 23 3 35 18
43 28 15 60 -4 60 -34 0 -33 238 -256 273 -256 13 0 28 -5 34 -11 8 -8 67 2
209 32 162 36 202 48 218 66 11 13 27 23 37 23 25 0 123 156 124 199 2 45 30
67 59 47 12 -7 22 -22 24 -33 2 -13 57 -57 155 -126 191 -132 187 -132 297
-22 46 46 78 85 75 93 -8 21 13 52 35 52 26 0 195 281 195 323 0 59 66 62 73
4 4 -30 245 -254 269 -249 8 2 24 -3 36 -10 19 -12 47 -8 224 31 165 36 204
48 209 63 3 10 15 18 27 18 30 0 141 173 133 206 -6 24 15 54 39 54 19 0 45
-28 45 -48 1 -10 61 -58 153 -121 120 -83 158 -104 182 -103 23 2 50 22 112
84 45 45 80 85 77 90 -11 17 8 47 34 56 39 13 196 272 193 319 -3 57 63 69 75
14 3 -14 6 -28 7 -31 1 -3 57 -56 123 -118 90 -83 129 -112 148 -112 l26 0 0
1845 0 1845 -2500 0 -2500 0 0 -2395z m1028 505 c50 -22 61 -43 37 -70 -16
-18 -18 -18 -53 7 -60 41 -133 21 -186 -51 -16 -20 -21 -42 -21 -86 0 -66 18
-99 76 -138 44 -30 104 -26 153 11 33 26 34 26 51 7 17 -19 17 -21 -1 -41 -27
-31 -93 -59 -139 -59 -90 0 -187 85 -201 175 -10 69 3 130 39 178 61 80 158
107 245 67z m585 -16 c54 -37 97 -119 97 -184 0 -65 -43 -147 -97 -184 -81
-56 -184 -45 -257 28 -107 107 -79 287 56 355 61 31 143 25 201 -15z m559 -2
c29 -29 33 -39 33 -88 0 -52 -3 -58 -38 -90 l-38 -35 42 -57 c24 -31 54 -72
67 -89 l24 -33 -40 0 c-39 0 -42 3 -107 90 -64 86 -69 90 -106 90 l-39 0 0
-90 0 -90 -30 0 -30 0 0 216 0 216 115 -4 c114 -3 115 -3 147 -36z m539 2 c36
-36 48 -103 27 -144 -26 -48 -74 -70 -154 -70 l-74 0 0 -90 0 -90 -30 0 -30 0
0 216 0 216 115 -4 c113 -3 115 -3 146 -34z m499 6 l0 -30 -100 0 -100 0 0
-60 0 -60 90 0 90 0 0 -30 0 -30 -90 0 -90 0 0 -65 0 -65 100 0 100 0 0 -30 0
-30 -130 0 -130 0 0 215 0 215 130 0 130 0 0 -30z m482 -8 c29 -29 33 -39 33
-88 0 -52 -3 -58 -38 -90 l-38 -35 42 -57 c24 -31 54 -72 67 -89 l24 -33 -40
0 c-39 0 -42 3 -107 90 -64 86 -69 90 -106 90 l-39 0 0 -90 0 -90 -30 0 -30 0
0 216 0 216 115 -4 c114 -3 115 -3 147 -36z m481 24 c18 -7 40 -22 50 -34 18
-19 18 -20 -3 -35 -19 -13 -25 -12 -58 4 -20 11 -44 19 -54 19 -32 0 -68 -23
-74 -47 -9 -33 17 -58 74 -73 136 -37 185 -110 132 -198 -48 -78 -190 -83
-258 -9 l-24 25 22 12 c17 9 29 7 64 -9 69 -34 140 -22 152 26 12 46 -3 58
-139 108 -138 50 -102 224 46 225 21 0 52 -6 70 -14z m-2810 -812 c54 -37 97
-119 97 -184 0 -65 -43 -147 -97 -184 -81 -56 -184 -45 -257 28 -107 107 -79
287 56 355 61 31 143 25 201 -15z m482 -128 l120 -159 3 162 2 161 30 0 30 0
0 -215 0 -215 -33 0 c-32 0 -40 9 -153 161 l-119 160 -3 -160 -2 -161 -30 0
-30 0 0 216 0 215 33 -3 c29 -3 45 -20 152 -162z m465 -21 l0 -185 100 0 100
0 0 -30 0 -30 -130 0 -130 0 0 215 0 215 30 0 30 0 0 -185z m540 160 c0 -18
-5 -25 -20 -25 -19 0 -20 -7 -20 -165 0 -158 1 -165 20 -165 15 0 20 -7 20
-25 0 -24 -2 -25 -65 -25 -63 0 -65 1 -65 25 0 16 6 25 15 25 13 0 15 25 15
165 0 140 -2 165 -15 165 -9 0 -15 9 -15 25 0 24 2 25 65 25 63 0 65 -1 65
-25z m425 -139 l120 -159 3 162 2 161 30 0 30 0 0 -215 0 -215 -33 0 c-32 0
-40 9 -153 161 l-119 160 -3 -160 -2 -161 -30 0 -30 0 0 216 0 215 33 -3 c29
-3 45 -20 152 -162z m655 134 l0 -30 -100 0 -100 0 0 -60 0 -60 90 0 90 0 0
-30 0 -30 -90 0 -90 0 0 -65 0 -65 100 0 100 0 0 -30 0 -30 -130 0 -130 0 0
215 0 215 130 0 130 0 0 -30z"/>
<path d="M1445 3056 c-97 -42 -124 -171 -54 -251 130 -148 348 55 222 206 -46
54 -109 71 -168 45z"/>
<path d="M1970 3005 l0 -65 64 0 c49 0 69 5 90 21 32 25 33 59 3 87 -19 18
-35 22 -90 22 l-67 0 0 -65z"/>
<path d="M2510 3005 l0 -65 68 0 c59 0 72 3 90 23 28 30 28 58 -1 85 -19 18
-35 22 -90 22 l-67 0 0 -65z"/>
<path d="M3490 3005 l0 -65 64 0 c49 0 69 5 90 21 32 25 33 59 3 87 -19 18
-35 22 -90 22 l-67 0 0 -65z"/>
<path d="M1195 2266 c-97 -42 -124 -171 -54 -251 130 -148 348 55 222 206 -46
54 -109 71 -168 45z"/>
<path d="M4658 1523 c-9 -2 -56 -68 -103 -146 -63 -104 -85 -148 -80 -164 6
-26 -26 -66 -47 -58 -7 3 -50 -32 -95 -77 -60 -61 -83 -91 -85 -113 -2 -23 -9
-31 -26 -33 -27 -4 -52 14 -52 38 0 23 -300 230 -333 230 -21 0 -36 -16 -83
-91 -36 -57 -58 -102 -58 -121 -1 -40 -26 -57 -59 -39 -22 12 -50 8 -226 -30
-134 -28 -201 -47 -201 -56 0 -7 -9 -17 -20 -23 -28 -15 -60 4 -60 34 0 32
-238 256 -272 256 -19 0 -39 -27 -111 -146 -61 -101 -87 -153 -83 -167 8 -32
-11 -57 -43 -57 -22 0 -44 -17 -105 -80 -51 -54 -76 -88 -76 -104 0 -52 -66
-59 -76 -8 -4 19 -26 40 -72 72 -37 25 -108 74 -157 108 -80 56 -94 62 -116
53 -36 -13 -131 -165 -133 -211 -1 -29 -5 -36 -24 -38 -13 -2 -29 1 -36 7 -10
8 -66 0 -216 -33 -163 -36 -205 -48 -216 -65 -26 -37 -74 -21 -74 25 0 15 -39
56 -126 135 -69 63 -130 114 -135 113 -5 -1 -15 -2 -23 -2 -7 -1 -52 -67 -100
-146 -68 -114 -86 -149 -81 -169 5 -19 1 -29 -15 -40 -12 -9 -27 -14 -34 -11
-6 2 -48 -33 -93 -78 -60 -61 -83 -91 -85 -113 -2 -23 -9 -31 -26 -33 -28 -4
-52 14 -52 38 0 12 -54 56 -157 128 -123 85 -163 108 -180 103 -31 -8 -144
-182 -132 -204 6 -10 3 -23 -10 -38 -16 -21 -22 -22 -45 -11 l-26 12 0 -85 0
-85 2500 0 2500 0 0 615 c0 586 -1 615 -18 615 -24 0 -42 19 -42 45 0 13 -44
60 -126 135 -69 63 -129 116 -133 116 -3 1 -14 0 -23 -3z"/>
</g>
</svg>
